<?xml version="1.0" encoding="iso-8859-1"?>
<!-- Generator: Adobe Illustrator 19.0.0, SVG Export Plug-In . SVG Version: 6.00 Build 0)  -->
<svg version="1.1" id="Capa_1" xmlns="http://www.w3.org/2000/svg" xmlns:xlink="http://www.w3.org/1999/xlink" x="0px" y="0px"
		width="50%" height="50px"
	 viewBox="0 0 511.998 511.998" style="enable-background:new 0 0 511.998 511.998;" xml:space="preserve">
<g>
	<path style="fill:#FF4F4F;" d="M98.549,248.22c-11.859,0-23.166-5.107-31.021-14.012l-0.14-0.168
		c-6.572-7.492-10.21-17.165-10.21-27.192C57.177,97.22,146.371,8.031,256.004,8.031v4.016
		c-64.008,0-116.083,87.387-116.083,194.801C139.921,229.66,121.361,248.22,98.549,248.22z"/>
	<path style="fill:#FF4F4F;" d="M413.449,248.22c-22.813,0-41.372-18.559-41.372-41.372c0-107.414-52.07-194.801-116.073-194.801
		V8.031c109.627,0,198.817,89.188,198.817,198.817c0,10.18-3.729,19.96-10.5,27.541C436.481,243.178,425.228,248.22,413.449,248.22z
		"/>
</g>
<path style="fill:#EFEFEF;" d="M334.722,248.22c-2.56,0-5.124-0.238-7.619-0.707c-19.55-3.631-33.743-20.733-33.743-40.665
	c0-116.525-19.315-194.801-37.356-194.801V8.031c32.273,0,62.538,20.817,85.218,58.619c22.487,37.479,34.871,87.27,34.871,140.198
	C376.093,229.66,357.535,248.22,334.722,248.22z"/>
<path style="fill:#FF4F4F;" d="M256.004,248.22c-22.812,0-41.372-18.559-41.372-41.372c0-52.701,4.108-102.263,11.566-139.559
	c5.407-27.033,14.966-59.257,29.805-59.257c14.834,0,24.394,32.225,29.801,59.257c7.462,37.301,11.57,86.863,11.57,139.559
	C297.376,229.66,278.817,248.22,256.004,248.22z"/>
<path style="fill:#EFEFEF;" d="M177.276,248.22c-22.812,0-41.372-18.559-41.372-41.372c0-52.93,12.384-102.719,34.872-140.198
	c22.682-37.802,52.949-58.619,85.227-58.619v4.016c-18.04,0-37.356,78.276-37.356,194.801c0,19.91-14.187,37.012-33.735,40.665
	C182.41,247.982,179.839,248.22,177.276,248.22z"/>
<polygon style="fill:#755E51;" points="199.784,388.689 258.843,447.749 199.784,506.809 "/>
<polygon style="fill:#BF9984;" points="196.944,503.969 256.004,444.909 315.063,503.969 "/>
<polygon style="fill:#755E51;" points="253.164,447.749 312.224,388.689 312.224,506.809 "/>
<polygon style="fill:#BF9984;" points="196.944,391.529 315.063,391.529 256.004,450.589 "/>
<path d="M450.555,239.454l0.069-0.083c7.885-9.001,12.228-20.529,12.228-32.523C462.852,92.791,370.06,0,256.004,0
	C141.942,0,49.146,92.791,49.146,206.848c0,11.869,4.274,23.318,12.032,32.283c0.01,0.012,0.017,0.024,0.027,0.036l130.548,157.981
	v104.812c0,0.015,0.002,0.029,0.002,0.044c0.001,0.315,0.017,0.63,0.047,0.945c0.015,0.154,0.044,0.303,0.065,0.455
	c0.025,0.173,0.045,0.345,0.078,0.516c0.034,0.17,0.08,0.335,0.122,0.502c0.038,0.151,0.071,0.302,0.116,0.452
	c0.049,0.164,0.11,0.321,0.169,0.481c0.053,0.149,0.102,0.299,0.164,0.447c0.061,0.149,0.134,0.291,0.202,0.436
	c0.072,0.153,0.14,0.306,0.22,0.456c0.073,0.137,0.157,0.266,0.235,0.398c0.089,0.15,0.174,0.3,0.27,0.445
	c0.095,0.142,0.201,0.275,0.303,0.412c0.094,0.125,0.182,0.255,0.282,0.378c0.19,0.231,0.392,0.452,0.601,0.665
	c0.022,0.022,0.04,0.047,0.062,0.069c0.022,0.022,0.047,0.041,0.07,0.063c0.213,0.209,0.433,0.411,0.664,0.599
	c0.124,0.102,0.255,0.191,0.382,0.286c0.135,0.1,0.266,0.205,0.406,0.298c0.148,0.098,0.3,0.184,0.451,0.274
	c0.131,0.077,0.258,0.16,0.393,0.232c0.152,0.081,0.308,0.151,0.463,0.223c0.143,0.067,0.282,0.138,0.428,0.199
	c0.151,0.062,0.303,0.112,0.456,0.167c0.157,0.056,0.311,0.116,0.472,0.165c0.152,0.046,0.306,0.079,0.46,0.118
	c0.164,0.041,0.326,0.087,0.493,0.12c0.176,0.035,0.353,0.055,0.53,0.081c0.148,0.021,0.292,0.049,0.441,0.063
	c0.329,0.032,0.66,0.05,0.991,0.05h108.424c0.33,0,0.662-0.018,0.991-0.05c0.148-0.014,0.291-0.042,0.437-0.063
	c0.179-0.025,0.357-0.046,0.535-0.081c0.166-0.033,0.325-0.078,0.488-0.119c0.156-0.039,0.311-0.073,0.466-0.119
	c0.158-0.048,0.31-0.107,0.466-0.163c0.155-0.055,0.31-0.106,0.463-0.17c0.144-0.059,0.281-0.13,0.422-0.196
	c0.157-0.073,0.315-0.144,0.469-0.226c0.133-0.071,0.259-0.153,0.387-0.229c0.153-0.09,0.306-0.177,0.455-0.276
	c0.139-0.092,0.269-0.196,0.403-0.295c0.13-0.096,0.261-0.186,0.387-0.289c0.22-0.181,0.429-0.373,0.632-0.572
	c0.033-0.032,0.068-0.058,0.1-0.091c0.034-0.034,0.062-0.071,0.095-0.105c0.197-0.202,0.388-0.41,0.567-0.627
	c0.106-0.129,0.199-0.264,0.297-0.398c0.096-0.13,0.197-0.256,0.287-0.391c0.102-0.153,0.191-0.311,0.284-0.468
	c0.074-0.124,0.153-0.246,0.222-0.374c0.084-0.157,0.156-0.318,0.231-0.479c0.064-0.138,0.133-0.272,0.191-0.412
	c0.064-0.155,0.116-0.313,0.173-0.471c0.054-0.152,0.112-0.302,0.16-0.457c0.048-0.159,0.083-0.32,0.123-0.48
	c0.039-0.158,0.083-0.312,0.115-0.472c0.037-0.187,0.059-0.375,0.086-0.564c0.019-0.137,0.045-0.27,0.059-0.408
	c0.033-0.332,0.05-0.665,0.05-0.998V397.148L450.555,239.454z M314.61,251.981l-45.668,131.517h-25.874l-45.663-131.529
	c7.689-3.427,14.283-8.729,19.253-15.292c9.03,11.882,23.305,19.572,39.347,19.572c16.039,0,30.31-7.687,39.342-19.565
	C300.317,243.255,306.916,248.559,314.61,251.981z M334.722,256.251c16.052,0,30.335-7.699,39.364-19.594
	c8.51,11.21,21.687,18.689,36.612,19.513L305.488,383.498h-15.293l44.189-127.255C334.497,256.244,334.609,256.251,334.722,256.251z
	 M235.849,403.577c0.025,0,0.05,0.003,0.075,0.003c0.023,0,0.047-0.003,0.071-0.003h40.015c0.024,0,0.047,0.003,0.071,0.003
	c0.025,0,0.05-0.003,0.075-0.003h9.82l-29.974,29.974l-29.975-29.974H235.849z M256.004,236.173
	c-16.169,0-29.325-13.155-29.325-29.325c0-49.045,3.646-95.801,10.268-131.657c7.265-39.343,15.729-52.493,19.055-54.878
	c3.325,2.387,11.789,15.541,19.054,54.884c6.624,35.86,10.27,82.615,10.27,131.65C285.329,223.017,272.173,236.173,256.004,236.173z
	 M229.513,25.859c-4.193,10.158-7.895,23.384-11.19,39.856c-7.56,37.798-11.723,87.92-11.723,141.134
	c0,14.113-10.052,26.234-23.904,28.824c-1.776,0.332-3.599,0.501-5.42,0.501c-16.169,0-29.325-13.155-29.325-29.325
	c0-50.777,11.775-98.366,33.156-133.999C194.919,49.83,211.561,33.817,229.513,25.859z M137.913,236.657
	c9.029,11.894,23.312,19.594,39.364,19.594c0.119,0,0.238-0.007,0.357-0.008l44.18,127.255H206.52L101.303,256.17
	C116.227,255.345,129.403,247.866,137.913,236.657z M211.831,417.775l29.974,29.974l-29.974,29.974V417.775z M256.004,461.948
	l29.974,29.974h-59.949L256.004,461.948z M270.201,447.749l29.974-29.974v59.949L270.201,447.749z M442.774,206.848
	c0,7.149-2.596,14.016-7.314,19.369c-0.041,0.048-0.086,0.089-0.128,0.139l-0.072,0.087c-5.554,6.183-13.498,9.73-21.812,9.73
	c-16.169,0-29.325-13.155-29.325-29.325c0-22.025-2.107-43.698-6.262-64.416c-1.09-5.436-6.383-8.96-11.817-7.869
	c-5.436,1.09-8.959,6.381-7.869,11.817c3.895,19.421,5.871,39.764,5.871,60.466c0,16.169-13.155,29.325-29.325,29.325
	c-1.746,0-3.491-0.16-5.209-0.47c-0.045-0.009-0.092-0.014-0.138-0.022c-0.022-0.004-0.045-0.007-0.067-0.011
	c-13.849-2.572-23.9-14.692-23.9-28.821c0-53.208-4.164-103.331-11.727-141.134c-3.297-16.482-7.001-29.715-11.198-39.876
	c22.207,9.821,42.3,31.893,57.337,63.783c2.364,5.016,8.346,7.165,13.362,4.799c5.015-2.364,7.164-8.347,4.799-13.362
	c-8.802-18.668-19.302-34.434-31.033-46.97C394.849,62.075,442.774,128.965,442.774,206.848z M185.086,34.077
	c-7.6,8.129-14.706,17.627-21.196,28.441c-23.226,38.709-36.017,89.966-36.017,144.33c0,16.169-13.155,29.325-29.325,29.325
	c-8.404,0-16.418-3.62-21.987-9.934c-0.005-0.005-0.01-0.01-0.015-0.015c-0.023-0.027-0.042-0.056-0.065-0.083
	c-4.679-5.337-7.257-12.189-7.257-19.292C69.224,128.954,117.165,62.056,185.086,34.077z"/>
<path d="M360.412,122.478c12.919,0,12.941-20.078,0-20.078C347.492,102.4,347.471,122.478,360.412,122.478z"/>
<g>
</g>
<g>
</g>
<g>
</g>
<g>
</g>
<g>
</g>
<g>
</g>
<g>
</g>
<g>
</g>
<g>
</g>
<g>
</g>
<g>
</g>
<g>
</g>
<g>
</g>
<g>
</g>
<g>
</g>
</svg>
